<svg width="516" height="421" fill="none" xmlns="http://www.w3.org/2000/svg"><path fill="#fff" d="M0 0h516v421H0z"/><path d="M204.12 230.24c6.6 0 7.68-6.6 7.68-6.6h-3.84s-.6 2.88-3.84 2.88c-2.4 0-4.32-1.92-4.32-4.92s1.92-4.92 4.32-4.92c3.12 0 3.84 2.76 3.84 2.76h3.84s-1.2-6.48-7.68-6.48c-4.56 0-8.16 3.6-8.16 8.64 0 5.04 3.6 8.64 8.16 8.64zm10.571-.24h3.6v-8.88h4.08V230h3.6v-12.24h-11.28V230zm18.836.24c2.28 0 3.36-1.32 3.36-1.32h.12l.24 1.08h3.12v-7.824c0-2.736-1.92-4.656-5.52-4.656-3.36 0-5.16 1.8-5.4 3.96h3.48s.36-1.08 1.92-1.08c1.2 0 1.92.72 1.92 1.8v.24h-2.76c-3.36 0-5.04 1.68-5.04 3.96 0 2.16 1.68 3.84 4.56 3.84zm.72-2.76c-1.08 0-1.68-.6-1.68-1.32 0-.72.6-1.32 1.92-1.32h2.28v.24c0 1.44-.96 2.4-2.52 2.4zm15.371 2.76c5.4 0 6.12-5.04 6.12-5.04h-3.72s-.48 1.68-2.4 1.68c-1.56 0-2.76-1.2-2.76-3s1.2-3 2.76-3c1.92 0 2.4 1.68 2.4 1.68h3.72s-.72-5.04-6.12-5.04c-3.72 0-6.36 2.64-6.36 6.36s2.64 6.36 6.36 6.36zm8.999-.24h4.32l3.12-6.36h.48V230h3.6v-12.24h-4.32l-3.12 6.36h-.48v-6.36h-3.6V230zm20.87.24c3.6 0 6.24-2.64 6.24-6 0-3.24-2.28-5.52-5.52-5.52-2.04 0-3 1.2-3 1.2h-.12c0-2.4 2.4-2.568 5.4-3.36 1.8-.48 2.64-1.32 2.64-4.32h-3.36c0 .84-.48 1.32-1.32 1.44-1.44.24-2.64.504-3.72 1.08-1.56.84-3.48 2.76-3.48 8.04v.48c0 4.32 2.64 6.96 6.24 6.96zm0-3.36c-1.44 0-2.52-1.08-2.52-2.52s1.08-2.52 2.52-2.52 2.52 1.08 2.52 2.52-1.08 2.52-2.52 2.52zm14.994 3.36c3.72 0 6.36-2.64 6.36-6.36s-2.64-6.36-6.36-6.36-6.36 2.64-6.36 6.36 2.64 6.36 6.36 6.36zm0-3.36c-1.56 0-2.76-1.2-2.76-3s1.2-3 2.76-3c1.56 0 2.76 1.2 2.76 3s-1.2 3-2.76 3zM311.5 230h3.84v-3.96h-3.84V230zm.48-5.52h2.88l.48-5.04v-6.24h-3.84v6.24l.48 5.04z" fill="#333"/><path d="M258 156c22.644 0 41-18.356 41-41s-18.356-41-41-41-41 18.356-41 41 18.356 41 41 41z" fill="#0DC332"/><path d="M320.5 115c0 34.518-27.982 62.5-62.5 62.5s-62.5-27.982-62.5-62.5 27.982-62.5 62.5-62.5 62.5 27.982 62.5 62.5z" stroke="#D1D1D1"/><path d="M279 100l-25.846 29L237 116.111" stroke="#fff" stroke-width="6" stroke-miterlimit="10" stroke-linecap="round" stroke-linejoin="round"/><path d="M487 22.001l13 13M487 35l13-13" stroke="#969696" stroke-width="2"/><path d="M70.314 280h4.69c1.68 0 2.8-1.12 2.8-2.73 0-1.54-1.12-2.17-1.12-2.17v-.07s.98-.63.98-2.1c0-1.61-1.12-2.73-2.8-2.73h-4.55v9.8zm1.82-1.61v-2.52h2.66c.63 0 1.19.56 1.19 1.26s-.56 1.26-1.19 1.26h-2.66zm0-4.13v-2.45h2.52c.7 0 1.19.49 1.19 1.26 0 .7-.49 1.19-1.19 1.19h-2.52zm9.942 5.88c1.4 0 2.03-.84 2.03-.84h.07l.14.7h1.47v-4.55c0-1.54-1.19-2.73-3.01-2.73-1.89 0-2.87 1.12-3.01 2.31h1.75c.07-.42.49-.91 1.26-.91s1.26.56 1.26 1.33v.14h-1.61c-1.96 0-2.94.98-2.94 2.38 0 1.19.98 2.17 2.59 2.17zm.28-1.4c-.7 0-1.12-.35-1.12-.91s.42-.91 1.33-.91h1.47v.21c0 .98-.63 1.61-1.68 1.61zm5.597 1.26h9.45v-7.14h-1.75v5.46h-2.1v-5.46h-1.75v5.46h-2.1v-5.46h-1.75V280zm14.976.14c2.24 0 3.15-1.68 3.29-2.24h-1.82c-.14.28-.63.77-1.47.77-.98 0-1.75-.7-1.89-1.68h5.32s.07-.28.07-.7c0-2.03-1.54-3.57-3.5-3.57-2.1 0-3.64 1.54-3.64 3.71s1.54 3.71 3.64 3.71zm-1.89-4.34c.21-.91.84-1.61 1.89-1.61.98 0 1.61.7 1.75 1.61h-3.64zm14.488 4.34c2.24 0 3.15-1.68 3.36-2.8h-1.75c-.14.49-.56 1.19-1.61 1.19s-1.89-.84-1.89-2.1c0-1.26.84-2.1 1.89-2.1 1.05 0 1.47.7 1.61 1.12h1.75c-.21-1.05-1.12-2.73-3.36-2.73-2.1 0-3.64 1.54-3.64 3.71s1.54 3.71 3.64 3.71zm8.472 0c2.1 0 3.64-1.54 3.64-3.71s-1.54-3.71-3.64-3.71-3.64 1.54-3.64 3.71 1.54 3.71 3.64 3.71zm0-1.61c-1.05 0-1.89-.84-1.89-2.1 0-1.26.84-2.1 1.89-2.1 1.05 0 1.89.84 1.89 2.1 0 1.26-.84 2.1-1.89 2.1zm8.815 1.61c2.1 0 3.64-1.54 3.64-3.71s-1.54-3.71-3.64-3.71-3.64 1.54-3.64 3.71 1.54 3.71 3.64 3.71zm0-1.61c-1.05 0-1.89-.84-1.89-2.1 0-1.26.84-2.1 1.89-2.1 1.05 0 1.89.84 1.89 2.1 0 1.26-.84 2.1-1.89 2.1zm8.745 1.61c2.03 0 3.5-1.47 3.5-3.43 0-1.96-1.33-3.29-3.15-3.29-1.12 0-1.75.56-1.96.84h-.07c.154-1.68 1.61-1.89 3.29-2.24.98-.21 1.54-.7 1.54-2.38h-1.61c0 .56-.28.84-.77.91-.49.07-1.61.28-2.24.63-1.12.63-2.03 1.89-2.03 4.69v.35c0 2.38 1.47 3.92 3.5 3.92zm0-1.54c-.98 0-1.75-.77-1.75-1.82s.77-1.82 1.75-1.82 1.75.77 1.75 1.82-.77 1.82-1.75 1.82zm14.069 3.08h1.75v-3.36h-.98v-5.46h-1.75v5.46h-2.1v-5.46h-1.75v5.46h-2.1v-5.46h-1.75V280h8.68v1.68zm6.583-1.54c2.24 0 3.15-1.68 3.29-2.24h-1.82c-.14.28-.63.77-1.47.77-.98 0-1.75-.7-1.89-1.68h5.32s.07-.28.07-.7c0-2.03-1.54-3.57-3.5-3.57-2.1 0-3.64 1.54-3.64 3.71s1.54 3.71 3.64 3.71zm-1.89-4.34c.21-.91.84-1.61 1.89-1.61.98 0 1.61.7 1.75 1.61h-3.64zm7.278 4.2h1.75v-2.66h2.87V280h1.75v-7.14h-1.75v2.8h-2.87v-2.8h-1.75V280zm8.609 0h2.24l2.1-4.34h.28V280h1.75v-7.14h-2.24l-2.1 4.34h-.28v-4.34h-1.75V280zm11.899.14c2.24 0 3.15-1.68 3.29-2.24h-1.82c-.14.28-.63.77-1.47.77-.98 0-1.75-.7-1.89-1.68h5.32s.07-.28.07-.7c0-2.03-1.54-3.57-3.5-3.57-2.1 0-3.64 1.54-3.64 3.71s1.54 3.71 3.64 3.71zm-1.89-4.34c.21-.91.84-1.61 1.89-1.61.98 0 1.61.7 1.75 1.61h-3.64zm14.488 4.34c2.1 0 3.64-1.54 3.64-3.71s-1.54-3.71-3.64-3.71-3.64 1.54-3.64 3.71 1.54 3.71 3.64 3.71zm0-1.61c-1.05 0-1.89-.84-1.89-2.1 0-1.26.84-2.1 1.89-2.1 1.05 0 1.89.84 1.89 2.1 0 1.26-.84 2.1-1.89 2.1zm6.861 1.47h1.75v-5.53h2.24v-1.61h-6.23v1.61h2.24V280zm5.605 0h1.75v-5.46h2.87V280h1.75v-7.14h-6.37V280zm8.61 2.8h1.75v-3.5h.07s.56.84 2.03.84c1.82 0 3.29-1.47 3.29-3.71s-1.47-3.71-3.29-3.71c-1.4 0-2.03.91-2.03.91h-.07l-.14-.77h-1.61v9.94zm3.57-4.27c-1.05 0-1.82-.77-1.82-2.1s.77-2.1 1.82-2.1 1.82.77 1.82 2.1-.77 2.1-1.82 2.1zm7.703 1.61c1.4 0 2.03-.84 2.03-.84h.07l.14.7h1.47v-4.55c0-1.54-1.19-2.73-3.01-2.73-1.89 0-2.87 1.12-3.01 2.31h1.75c.07-.42.49-.91 1.26-.91s1.26.56 1.26 1.33v.14h-1.61c-1.96 0-2.94.98-2.94 2.38 0 1.19.98 2.17 2.59 2.17zm.28-1.4c-.7 0-1.12-.35-1.12-.91s.42-.91 1.33-.91h1.47v.21c0 .98-.63 1.61-1.68 1.61zm5.597 1.26h4.06c1.26 0 2.17-.91 2.17-2.03 0-1.176-.98-1.61-.98-1.61v-.07s.84-.35.84-1.4c0-1.19-.84-2.03-2.17-2.03h-3.92V280zm1.75-1.33v-1.61h1.89c.49 0 .84.35.84.77 0 .49-.35.84-.84.84h-1.89zm0-2.94v-1.54h1.82c.49 0 .77.28.77.77s-.28.77-.77.77h-1.82zm5.322 4.34h.63c1.47 0 2.24-.84 2.38-2.45l.28-3.15h1.96V280h1.75v-7.14h-5.32l-.392 4.48c-.07.77-.378 1.12-.938 1.12h-.35v1.61zm12.535.07c2.24 0 3.15-1.68 3.29-2.24h-1.82c-.14.28-.63.77-1.47.77-.98 0-1.75-.7-1.89-1.68h5.32s.07-.28.07-.7c0-2.03-1.54-3.57-3.5-3.57-2.1 0-3.64 1.54-3.64 3.71s1.54 3.71 3.64 3.71zm-1.89-4.34c.21-.91.84-1.61 1.89-1.61.98 0 1.61.7 1.75 1.61h-3.64zm7.278 4.2h1.75v-2.66h2.87V280h1.75v-7.14h-1.75v2.8h-2.87v-2.8h-1.75V280zm11.899.14c2.1 0 3.64-1.54 3.64-3.71s-1.54-3.71-3.64-3.71-3.64 1.54-3.64 3.71 1.54 3.71 3.64 3.71zm0-1.61c-1.05 0-1.89-.84-1.89-2.1 0-1.26.84-2.1 1.89-2.1 1.05 0 1.89.84 1.89 2.1 0 1.26-.84 2.1-1.89 2.1zm9.445 1.47h1.75v-4.55h.28l1.47 4.55h1.68l1.47-4.55h.28V280h1.75v-7.14h-2.66l-1.54 4.62h-.28l-1.54-4.62h-2.66V280zm10.92 0h3.43c1.54 0 2.52-.98 2.52-2.45 0-1.47-.98-2.45-2.52-2.45h-1.68v-2.24h-1.75V280zm1.75-1.4v-2.1h1.4c.63 0 1.05.42 1.05 1.05 0 .63-.42 1.05-1.05 1.05h-1.4zm4.97 1.4h1.75v-7.14h-1.75V280zm11.205.14c2.24 0 3.15-1.68 3.36-2.8h-1.75c-.14.49-.56 1.19-1.61 1.19s-1.89-.84-1.89-2.1c0-1.26.84-2.1 1.89-2.1 1.05 0 1.47.7 1.61 1.12h1.75c-.21-1.05-1.12-2.73-3.36-2.73-2.1 0-3.64 1.54-3.64 3.71s1.54 3.71 3.64 3.71zm5.182-.14h4.06c1.26 0 2.17-.91 2.17-2.03 0-1.176-.98-1.61-.98-1.61v-.07s.84-.35.84-1.4c0-1.19-.84-2.03-2.17-2.03h-3.92V280zm1.75-1.33v-1.61h1.89c.49 0 .84.35.84.77 0 .49-.35.84-.84.84h-1.89zm0-2.94v-1.54h1.82c.49 0 .77.28.77.77s-.28.77-.77.77h-1.82zm5.739 4.27h1.96l2.24-2.45h.42V280h1.75v-7.14h-3.71c-1.47 0-2.52 1.05-2.52 2.38 0 1.26 1.05 2.31 2.1 2.31l-2.24 2.45zm2.94-3.78c-.63 0-1.05-.42-1.05-.98s.42-.98 1.05-.98h1.68v1.96h-1.68zm4.689 3.78h2.03l2.1-3.36V280h1.75v-3.36l2.1 3.36h2.03l-2.31-3.64 2.17-3.5h-2.03l-1.96 3.22v-3.22h-1.75v3.22l-1.96-3.22h-2.03l2.17 3.5-2.31 3.64zm14.424.14c2.24 0 3.15-1.68 3.29-2.24h-1.82c-.14.28-.63.77-1.47.77-.98 0-1.75-.7-1.89-1.68h5.32s.07-.28.07-.7c0-2.03-1.54-3.57-3.5-3.57-2.1 0-3.64 1.54-3.64 3.71s1.54 3.71 3.64 3.71zm-1.89-4.34c.21-.91.84-1.61 1.89-1.61.98 0 1.61.7 1.75 1.61h-3.64zm7.278 4.2h1.75v-4.55h.28l1.47 4.55h1.68l1.47-4.55h.28V280h1.75v-7.14h-2.66l-1.54 4.62h-.28l-1.54-4.62h-2.66V280zm14.21.14c2.24 0 3.15-1.68 3.36-2.8h-1.75c-.14.49-.56 1.19-1.61 1.19s-1.89-.84-1.89-2.1c0-1.26.84-2.1 1.89-2.1 1.05 0 1.47.7 1.61 1.12h1.75c-.21-1.05-1.12-2.73-3.36-2.73-2.1 0-3.64 1.54-3.64 3.71s1.54 3.71 3.64 3.71zm4.623-.14h1.96l2.24-2.45h.42V280h1.75v-7.14h-3.71c-1.47 0-2.52 1.05-2.52 2.38 0 1.26 1.05 2.31 2.1 2.31l-2.24 2.45zm2.94-3.78c-.63 0-1.05-.42-1.05-.98s.42-.98 1.05-.98h1.68v1.96H376zm12.879 3.92c2.24 0 3.15-1.68 3.36-2.8h-1.75c-.14.49-.56 1.19-1.61 1.19s-1.89-.84-1.89-2.1c0-1.26.84-2.1 1.89-2.1 1.05 0 1.47.7 1.61 1.12h1.75c-.21-1.05-1.12-2.73-3.36-2.73-2.1 0-3.64 1.54-3.64 3.71s1.54 3.71 3.64 3.71zm9.103-.14h4.06c1.26 0 2.17-.91 2.17-2.03 0-1.176-.98-1.61-.98-1.61v-.07s.84-.35.84-1.4c0-1.19-.84-2.03-2.17-2.03h-3.92V280zm1.75-1.33v-1.61h1.89c.49 0 .84.35.84.77 0 .49-.35.84-.84.84h-1.89zm0-2.94v-1.54h1.82c.49 0 .77.28.77.77s-.28.77-.77.77h-1.82zm8.539 4.41c1.4 0 2.03-.84 2.03-.84h.07l.14.7h1.47v-4.55c0-1.54-1.19-2.73-3.01-2.73-1.89 0-2.87 1.12-3.01 2.31h1.75c.07-.42.49-.91 1.26-.91s1.26.56 1.26 1.33v.14h-1.61c-1.96 0-2.94.98-2.94 2.38 0 1.19.98 2.17 2.59 2.17zm.28-1.4c-.7 0-1.12-.35-1.12-.91s.42-.91 1.33-.91h1.47v.21c0 .98-.63 1.61-1.68 1.61zm5.597 1.26h1.75v-4.55h.28l1.47 4.55h1.68l1.47-4.55h.28V280h1.75v-7.14h-2.66l-1.54 4.62h-.28l-1.54-4.62h-2.66V280zm10.92 0h2.24l2.1-4.34h.28V280h1.75v-7.14h-2.24l-2.1 4.34h-.28v-4.34h-1.75V280zm12.529 0h4.06c1.26 0 2.17-.91 2.17-2.03 0-1.176-.98-1.61-.98-1.61v-.07s.84-.35.84-1.4c0-1.19-.84-2.03-2.17-2.03h-3.92V280zm1.75-1.33v-1.61h1.89c.49 0 .84.35.84.77 0 .49-.35.84-.84.84h-1.89zm0-2.94v-1.54h1.82c.49 0 .77.28.77.77s-.28.77-.77.77h-1.82zm-243.036 30.41c2.03 0 3.5-1.47 3.5-3.43 0-1.96-1.33-3.29-3.15-3.29-1.12 0-1.75.56-1.96.84h-.07c.154-1.68 1.61-1.89 3.29-2.24.98-.21 1.54-.7 1.54-2.38h-1.61c0 .56-.28.84-.77.91-.49.07-1.61.28-2.24.63-1.12.63-2.03 1.89-2.03 4.69v.35c0 2.38 1.47 3.92 3.5 3.92zm0-1.54c-.98 0-1.75-.77-1.75-1.82s.77-1.82 1.75-1.82 1.75.77 1.75 1.82-.77 1.82-1.75 1.82zm4.413 1.47h.63c1.47 0 2.24-.84 2.38-2.45l.28-3.15h1.96V306h1.75v-7.14h-5.32l-.392 4.48c-.07.77-.378 1.12-.938 1.12h-.35v1.61zm9.244-.07h2.24l2.1-4.34h.28V306h1.75v-7.14h-2.24l-2.1 4.34h-.28v-4.34h-1.75V306zm7.63 0h2.03l2.1-3.36V306h1.75v-3.36l2.1 3.36h2.03l-2.31-3.64 2.17-3.5h-2.03l-1.96 3.22v-3.22h-1.75v3.22l-1.96-3.22h-2.03l2.17 3.5-2.31 3.64zm13.374.14c1.4 0 2.03-.84 2.03-.84h.07l.14.7h1.47v-4.55c0-1.54-1.19-2.73-3.01-2.73-1.89 0-2.87 1.12-3.01 2.31h1.75c.07-.42.49-.91 1.26-.91s1.26.56 1.26 1.33v.14h-1.61c-1.96 0-2.94.98-2.94 2.38 0 1.19.98 2.17 2.59 2.17zm.28-1.4c-.7 0-1.12-.35-1.12-.91s.42-.91 1.33-.91h1.47v.21c0 .98-.63 1.61-1.68 1.61zm5.597 1.26h2.24l2.1-4.34h.28V306h1.75v-7.14h-2.24l-2.1 4.34h-.28v-4.34h-1.75V306zm3.22-8.12c1.33 0 2.17-.77 2.24-2.03h-1.33c-.14.56-.42.84-.91.84-.49 0-.77-.28-.91-.84h-1.33c.07 1.26.91 2.03 2.24 2.03zm5.39 8.12h9.45v-7.14h-1.75v5.46h-2.1v-5.46h-1.75v5.46h-2.1v-5.46h-1.75V306zm14.975.14c2.24 0 3.15-1.68 3.29-2.24h-1.82c-.14.28-.63.77-1.47.77-.98 0-1.75-.7-1.89-1.68h5.32s.07-.28.07-.7c0-2.03-1.54-3.57-3.5-3.57-2.1 0-3.64 1.54-3.64 3.71s1.54 3.71 3.64 3.71zm-1.89-4.34c.21-.91.84-1.61 1.89-1.61.98 0 1.61.7 1.75 1.61h-3.64zm10.568 4.34c2.24 0 3.15-1.68 3.29-2.24h-1.82c-.14.28-.63.77-1.47.77-.98 0-1.75-.7-1.89-1.68h5.32s.07-.28.07-.7c0-2.03-1.54-3.57-3.5-3.57-2.1 0-3.64 1.54-3.64 3.71s1.54 3.71 3.64 3.71zm-1.89-4.34c.21-.91.84-1.61 1.89-1.61.98 0 1.61.7 1.75 1.61h-3.64zm11.198 4.2h4.06c1.26 0 2.17-.91 2.17-2.03 0-1.176-.98-1.61-.98-1.61v-.07s.84-.35.84-1.4c0-1.19-.84-2.03-2.17-2.03h-3.92V306zm1.75-1.33v-1.61h1.89c.49 0 .84.35.84.77 0 .49-.35.84-.84.84h-1.89zm0-2.94v-1.54h1.82c.49 0 .77.28.77.77s-.28.77-.77.77h-1.82zm6.299 7.07h1.75v-3.5h.07s.56.84 2.03.84c1.82 0 3.29-1.47 3.29-3.71s-1.47-3.71-3.29-3.71c-1.4 0-2.03.91-2.03.91h-.07l-.14-.77h-1.61v9.94zm3.57-4.27c-1.05 0-1.82-.77-1.82-2.1s.77-2.1 1.82-2.1 1.82.77 1.82 2.1-.77 2.1-1.82 2.1zm8.753 1.61c2.24 0 3.15-1.68 3.29-2.24h-1.82c-.14.28-.63.77-1.47.77-.98 0-1.75-.7-1.89-1.68h5.32s.07-.28.07-.7c0-2.03-1.54-3.57-3.5-3.57-2.1 0-3.64 1.54-3.64 3.71s1.54 3.71 3.64 3.71zm-1.89-4.34c.21-.91.84-1.61 1.89-1.61.98 0 1.61.7 1.75 1.61h-3.64zm7.278 4.2h1.75v-4.55h.28l1.47 4.55h1.68l1.47-4.55h.28V306h1.75v-7.14h-2.66l-1.54 4.62h-.28l-1.54-4.62h-2.66V306zm10.36 0h1.96l2.24-2.45h.42V306h1.75v-7.14h-3.71c-1.47 0-2.52 1.05-2.52 2.38 0 1.26 1.05 2.31 2.1 2.31l-2.24 2.45zm2.94-3.78c-.63 0-1.05-.42-1.05-.98s.42-.98 1.05-.98h1.68v1.96h-1.68z" fill="#4F4F4F"/><path fill="#333" d="M62 356h391v42H62z"/><path d="M190.96 381h3.72c1.26 0 2.28-1.02 2.28-2.34 0-1.38-1.02-1.86-1.02-1.86v-.06s.9-.54.9-1.8c0-1.32-1.02-2.34-2.28-2.34h-3.6v8.4zm.96-.9v-2.88h2.76c.72 0 1.32.6 1.32 1.44s-.6 1.44-1.32 1.44h-2.76zm0-3.72v-2.88h2.64c.72 0 1.32.6 1.32 1.44s-.6 1.44-1.32 1.44h-2.64zm9.116 4.62h5.4v-.9h-4.44v-2.88h4.2v-.9h-4.2v-2.82h4.44v-.9h-5.4v8.4zm9.419 0h.96v-3.24h2.7c1.32 0 2.4-1.08 2.4-2.58s-1.08-2.58-2.4-2.58h-3.66v8.4zm.96-4.14v-3.36h2.7c.78 0 1.44.66 1.44 1.68s-.66 1.68-1.44 1.68h-2.7zm9.058 4.14h.96v-3.78h4.68V381h.96v-8.4h-.96v3.72h-4.68v-3.72h-.96v8.4zm11.159 0h1.2c.78 0 1.164-.36 1.38-.84l3.42-7.56h-1.02l-2.34 5.22h-.24l-2.46-5.22h-1.02l3.12 6.54-.24.54c-.132.312-.3.42-.66.42h-1.14v.9zm11.584 0h.96v-7.5h2.76v-.9h-6.48v.9h2.76v7.5zm10.804.12c1.8 0 3.24-1.08 3.72-2.88h-1.02c-.42 1.26-1.44 1.98-2.7 1.98-1.68 0-3.06-1.38-3.06-3.42s1.38-3.42 3.06-3.42c1.26 0 2.28.72 2.7 1.92h1.02c-.48-1.74-1.92-2.82-3.72-2.82-2.22 0-4.02 1.74-4.02 4.32s1.8 4.32 4.02 4.32zm7.026-.12h1.2l3.24-3.24h.84V381h.96v-8.4h-3.66c-1.32 0-2.4 1.08-2.4 2.58s1.08 2.58 2.4 2.58h.66l-3.24 3.24zm2.58-4.14c-.78 0-1.44-.66-1.44-1.68s.66-1.68 1.44-1.68h2.7v3.36h-2.7zm13.141 4.14h.96v-3.78h4.68V381h.96v-8.4h-.96v3.72h-4.68v-3.72h-.96v8.4zm9.96 0h1.02l.78-2.16h4.2l.78 2.16h1.02l-3.18-8.4h-1.44l-3.18 8.4zm2.16-3.06l1.62-4.32h.24l1.62 4.32h-3.48zm11.524 3.18c1.92 0 3.06-1.08 3.06-2.4 0-1.5-1.5-1.92-1.5-1.92v-.06s1.32-.42 1.32-1.86c0-1.26-1.08-2.4-2.88-2.4-1.8 0-2.88 1.08-2.88 2.4h.96c0-.78.72-1.5 1.92-1.5s1.92.66 1.92 1.5c0 .78-.66 1.44-1.62 1.44h-.84v.9h.84c1.08 0 1.8.72 1.8 1.5s-.78 1.5-2.1 1.5c-1.38 0-2.1-.72-2.1-1.5h-.96c0 1.32 1.14 2.4 3.06 2.4zm5.823-.12h1.02l.78-2.16h4.2l.78 2.16h1.02l-3.18-8.4h-1.44l-3.18 8.4zm2.16-3.06l1.62-4.32h.24l1.62 4.32h-3.48zm8.044 4.74h.96V381h5.88v1.68h.96v-2.58h-.9v-7.5h-5.22l-.54 6.54c-.06.66-.36.96-.96.96h-.18v2.58zm1.74-2.58s.288-.18.36-.96l.48-5.64h3.36v6.6h-4.2z" fill="#fff"/></svg>