<svg version="1.0" xmlns="http://www.w3.org/2000/svg" width="280" height="346.667" viewBox="0 0 210 260"><path d="M129.6 72.2c-1.1.6-4.2.8-7.2.5-4.2-.4-5.8-.2-7 1-1.1 1.1-1.8 1.3-2.3.5-.8-1.3-7.9-.6-9.9 1-1 .9-1.6.8-2.3-.3-.5-.8-.9-1.8-.9-2.3 0-.5-.7-.3-1.5.4s-1.6.9-1.7.4c-.2-.5-.5 15.1-.8 34.6l-.5 35.5-3.7.3c-2 .2-4.2 1-4.8 1.8-1.5 1.7-7.5 1.8-15.2.3-6.5-1.3-6.8-1.7-6.8-12.8 0-6.9 1.4-12.9 4.7-20.8 1-2.4 1.1-3.8.3-5.2-.5-1.1-1-3.7-.9-5.8.1-5.3-1.3-9.4-3.8-11-1.9-1.3-2.4-1.2-4 .4-1 1-2.7 4.4-3.8 7.5-1.7 5.1-1.8 6.4-.6 11 1.9 8.3 3 20 3.3 36.3l.3 15 3.3.3c2 .2 3.4-.2 3.7-1 .7-1.7-3-9-4-8-.4.4-.6 0-.3-.8.3-1.1 2.4-1.6 8.6-1.8 7.5-.3 8.2-.1 8.2 1.7 0 1-.7 2.1-1.5 2.5-.8.3-1.5 1.2-1.5 2.1 0 3.1 9.4 1.3 13.7-2.7 1.6-1.5 2.9-1.8 5.2-1.3 2.3.5 4 .1 6.4-1.4 3-1.8 3.5-1.9 4.8-.5 1.4 1.3 1.7 1.2 3.4-.6 2-2.2 2.4-9.8 1-17.1-.8-4.3 1.2-9 5-11.5 2-1.3 2.5-2.5 2.5-5.8l.1-4.1 1.8 2.3c1.2 1.3 2.1 1.8 2.3 1 .3-.7.9-.8 1.8-.3 1 .6 1.1 2.9.7 10.4-.7 10.8-1.8 15.5-3.5 15.7-.7.1-1.7.2-2.4.3-2.3.2 1.6 2.8 9 6.1 6.9 3 7.5 3.1 9.2 1.5 1.8-1.6 2.4-1.6 10.2.1 9.4 1.9 11.4 3 9.7 5-1.3 1.5-.6 1.9 9.6 5 9 2.7 16.7 8.6 15 11.4-.3.5 0 1.2.6 1.6.6.3 1.5 0 2-.7.4-.7 1.1-1 1.6-.6.4.5.1 1.2-.6 1.6-.7.5-1 1.4-.7 2 1.4 2.3-25.5-.1-37.4-3.3-8.1-2.1-20.8-8-26.4-12.1-5.8-4.3-7.3-3.9-2.3.7 7.4 6.8 29.4 15.6 49.7 19.9 3 .6 6.5 1.5 7.8 2 1.3.5 4.3.9 6.7.9 2.5 0 4.5.5 4.5 1 0 .6-1.5.8-3.9.4-3.8-.6-3.9-.6-4.3 2.8-.3 3.1-.1 3.4 1.9 3 3-.6 3 1.5-.1 6.1-1.4 2-2.8 5.2-3.2 7.2-.3 1.9-.9 3.7-1.3 3.9-1.2.7-19.7-2.4-25.7-4.4-12.7-4.2-26.9-12.7-32.6-19.5-1-1.1-1.7-1.5-1.8-.9 0 1.8 5.1 7.3 10.4 11.1 8.3 6 24.2 13.6 37.2 17.8l12.1 3.9-1.4 3.5c-.8 1.9-1.3 5.2-1.1 7.2.3 3.4.2 3.7-1.3 2.3-2.2-2-3.2-1.7-2.6.8.8 3-.7 5.4-4.2 6.6-2.5.9-4.5.6-10.8-1.5-4.3-1.4-9.1-3.2-10.8-4-4-2.1-13.3-8.5-17-11.8-4.3-3.8-4.6-1-.3 3.1 4.6 4.3 19.3 13.8 25.4 16.5 11.8 5 11.5 4.8 10.8 8.8-.4 2-.7 4.3-.7 5.1.1 4.3-4.1 4.6-12.7.7-13.9-6.2-31.1-22.9-34.4-33.5-.8-2.3-2.6-3-2.6-1 0 .7.7 10.9 1.7 22.6l1.6 21.2H210v-58.4c0-56-.1-58.4-1.9-58.9-2.6-.6-2.9-3.6-2.5-25.1.4-19.1-.6-21.2-2.1-4.4-.4 4.3-1.1 7.5-1.6 7.2-.5-.3-.9-1.4-.9-2.5s-.4-1.7-1-1.4c-.5.3-1 1.5-1 2.6 0 2.1-2 2.5-3.8.7-.9-.9-2.7-.9-7.8.1-7.6 1.4-9 .7-11-5.2-1.1-3.1-1.1-3-3.2 5.7-1.9 8.1-3.2 11.6-3.2 8.8 0-1.3-2.9-.4-4.9 1.5-.7.8-1.8 1.2-2.5 1-2.3-.8-3-20.8-.8-22.1.9-.4 6.1 5.1 5.6 5.8-.2.4.2.1.9-.4 1.3-1.2 2.4-22.2 1.3-26.6l-.7-2.7-3 2.9c-2.7 2.6-2.9 2.7-2.9.7 0-2.3-4.7-6.3-7.5-6.3-2.6 0-5.5 1.9-5.5 3.6 0 .8.5 1.2 1.1.9.7-.5 1 1.4 1 5.6 0 3.5.1 8.6.3 11.2.1 2.7-.2 5.1-.8 5.5-.6.4-2.6 3.7-4.5 7.4-1.8 3.8-3.7 6.6-4.1 6.3-.5-.3-1.2-3.3-1.6-6.6-.7-6.5-.5-6.3-6.4-4.8-1.3.3-1.5-2.4-1.8-19.6-.1-11-.6-20.3-1-20.7-.4-.4-1.5-.2-2.6.4zM0 140.5c0 43.4-.2 42.2 5.8 37.4l2.7-2.1.6 2.9c.4 1.5.7 7.5.8 13.3l.1 10.5-3.5 2.4c-1.9 1.3-4.1 2.1-5 1.7-1.3-.4-1.5.8-1.5 7.9 0 9.9 1.6 11.3 4.7 4 1-2.5 2.3-4.5 3-4.5.7 0 1.9 2.1 2.6 4.7 1.3 4.3 1.7 4.8 4.3 4.8 6.2.1 11.7-3.6 9.9-6.5-.3-.5 0-.7.7-.5 1 .4 1.8-1.2 2.8-5.7.8-3.5 1.5-7.1 1.5-8 0-1 1.1-2.7 2.3-3.8 1.2-1.1 2.2-2.6 2.2-3.3 0-.7 1.9-3.7 4.3-6.7 2.3-3 5.8-7.9 7.7-10.7 2.8-4.2 3.6-4.9 4.2-3.5.6 1.5.7 1.4.7-.4.1-1.1 1.4-3.8 3.1-6 3.5-4.6 3.7-6 1.1-6.7-2.1-.5-4.3 1.1-17.4 12.5-4.2 3.8-8.2 6.8-8.7 6.8-1.3 0-1.7-2.4-2.9-17.2-.5-7-1.5-13.6-2-14.7-.6-1.1-2.5-2.2-4.3-2.6-4.6-1-7.7-3.1-8.8-6.1-.8-1.9-1.5-2.4-3-1.9-1.7.5-2 .2-2-2.7 0-1.8-.4-4-1-4.8-.5-.9-.5-1.9.1-2.7.6-.7.8-1.7.4-2.3-.4-.6.1-2.7 1-4.7 2.1-4.4 1.4-10-1.4-12-1.1-.7-2.3-2.9-2.7-4.8-1.8-9.6-2.4-.3-2.4 36z"/></svg>