<?xml version="1.0" standalone="no"?>
<!DOCTYPE svg PUBLIC "-//W3C//DTD SVG 20010904//EN"
 "http://www.w3.org/TR/2001/REC-SVG-20010904/DTD/svg10.dtd">
<svg version="1.0" xmlns="http://www.w3.org/2000/svg"
 width="210.000000pt" height="260.000000pt" viewBox="0 0 210.000000 260.000000"
 preserveAspectRatio="xMidYMid meet">
<metadata>
Created by potrace 1.16, written by Peter Selinger 2001-2019
</metadata>
<g transform="translate(0.000000,260.000000) scale(0.100000,-0.100000)"
fill="#000000" stroke="none">
<path d="M1296 1878 c-11 -6 -42 -8 -72 -5 -42 4 -58 2 -70 -10 -11 -11 -18
-13 -23 -5 -8 13 -79 6 -99 -10 -10 -9 -16 -8 -23 3 -5 8 -9 18 -9 23 0 5 -7
3 -15 -4 -8 -7 -16 -9 -17 -4 -2 5 -5 -151 -8 -346 l-5 -355 -37 -3 c-20 -2
-42 -10 -48 -18 -15 -17 -75 -18 -152 -3 -65 13 -68 17 -68 128 0 69 14 129
47 208 10 24 11 38 3 52 -5 11 -10 37 -9 58 1 53 -13 94 -38 110 -19 13 -24
12 -40 -4 -10 -10 -27 -44 -38 -75 -17 -51 -18 -64 -6 -110 19 -83 30 -200 33
-363 l3 -150 33 -3 c20 -2 34 2 37 10 7 17 -30 90 -40 80 -4 -4 -6 0 -3 8 3
11 24 16 86 18 75 3 82 1 82 -17 0 -10 -7 -21 -15 -25 -8 -3 -15 -12 -15 -21
0 -31 94 -13 137 27 16 15 29 18 52 13 23 -5 40 -1 64 14 30 18 35 19 48 5 14
-13 17 -12 34 6 20 22 24 98 10 171 -8 43 12 90 50 115 20 13 25 25 25 58 l1
41 18 -23 c12 -13 21 -18 23 -10 3 7 9 8 18 3 10 -6 11 -29 7 -104 -7 -108
-18 -155 -35 -157 -7 -1 -17 -2 -24 -3 -23 -2 16 -28 90 -61 69 -30 75 -31 92
-15 18 16 24 16 102 -1 94 -19 114 -30 97 -50 -13 -15 -6 -19 96 -50 90 -27
167 -86 150 -114 -3 -5 0 -12 6 -16 6 -3 15 0 20 7 4 7 11 10 16 6 4 -5 1 -12
-6 -16 -7 -5 -10 -14 -7 -20 14 -23 -255 1 -374 33 -81 21 -208 80 -264 121
-58 43 -73 39 -23 -7 74 -68 294 -156 497 -199 30 -6 65 -15 78 -20 13 -5 43
-9 67 -9 25 0 45 -5 45 -10 0 -6 -15 -8 -39 -4 -38 6 -39 6 -43 -28 -3 -31 -1
-34 19 -30 30 6 30 -15 -1 -61 -14 -20 -28 -52 -32 -72 -3 -19 -9 -37 -13 -39
-12 -7 -197 24 -257 44 -127 42 -269 127 -326 195 -10 11 -17 15 -18 9 0 -18
51 -73 104 -111 83 -60 242 -136 372 -178 l121 -39 -14 -35 c-8 -19 -13 -52
-11 -72 3 -34 2 -37 -13 -23 -22 20 -32 17 -26 -8 8 -30 -7 -54 -42 -66 -25
-9 -45 -6 -108 15 -43 14 -91 32 -108 40 -40 21 -133 85 -170 118 -43 38 -46
10 -3 -31 46 -43 193 -138 254 -165 118 -50 115 -48 108 -88 -4 -20 -7 -43 -7
-51 1 -43 -41 -46 -127 -7 -139 62 -311 229 -344 335 -8 23 -26 30 -26 10 0
-7 7 -109 17 -226 l16 -212 469 0 468 0 0 584 c0 560 -1 584 -19 589 -26 6
-29 36 -25 251 4 191 -6 212 -21 44 -4 -43 -11 -75 -16 -72 -5 3 -9 14 -9 25
0 11 -4 17 -10 14 -5 -3 -10 -15 -10 -26 0 -21 -20 -25 -38 -7 -9 9 -27 9 -78
-1 -76 -14 -90 -7 -110 52 -11 31 -11 30 -32 -57 -19 -81 -32 -116 -32 -88 0
13 -29 4 -49 -15 -7 -8 -18 -12 -25 -10 -23 8 -30 208 -8 221 9 4 61 -51 56
-58 -2 -4 2 -1 9 4 13 12 24 222 13 266 l-7 27 -30 -29 c-27 -26 -29 -27 -29
-7 0 23 -47 63 -75 63 -26 0 -55 -19 -55 -36 0 -8 5 -12 11 -9 7 5 10 -14 10
-56 0 -35 1 -86 3 -112 1 -27 -2 -51 -8 -55 -6 -4 -26 -37 -45 -74 -18 -38
-37 -66 -41 -63 -5 3 -12 33 -16 66 -7 65 -5 63 -64 48 -13 -3 -15 24 -18 196
-1 110 -6 203 -10 207 -4 4 -15 2 -26 -4z"/>
<path d="M0 1195 c0 -434 -2 -422 58 -374 l27 21 6 -29 c4 -15 7 -75 8 -133
l1 -105 -35 -24 c-19 -13 -41 -21 -50 -17 -13 4 -15 -8 -15 -79 0 -99 16 -113
47 -40 10 25 23 45 30 45 7 0 19 -21 26 -47 13 -43 17 -48 43 -48 62 -1 117
36 99 65 -3 5 0 7 7 5 10 -4 18 12 28 57 8 35 15 71 15 80 0 10 11 27 23 38
12 11 22 26 22 33 0 7 19 37 43 67 23 30 58 79 77 107 28 42 36 49 42 35 6
-15 7 -14 7 4 1 11 14 38 31 60 35 46 37 60 11 67 -21 5 -43 -11 -174 -125
-42 -38 -82 -68 -87 -68 -13 0 -17 24 -29 172 -5 70 -15 136 -20 147 -6 11
-25 22 -43 26 -46 10 -77 31 -88 61 -8 19 -15 24 -30 19 -17 -5 -20 -2 -20 27
0 18 -4 40 -10 48 -5 9 -5 19 1 27 6 7 8 17 4 23 -4 6 1 27 10 47 21 44 14
100 -14 120 -11 7 -23 29 -27 48 -18 96 -24 3 -24 -360z"/>
</g>
</svg>
