<svg width="516" height="421" viewBox="0 0 516 421" fill="none" xmlns="http://www.w3.org/2000/svg">
<rect width="516" height="421" fill="white"/>
<path d="M204.12 230.24C210.72 230.24 211.8 223.64 211.8 223.64H207.96C207.96 223.64 207.36 226.52 204.12 226.52C201.72 226.52 199.8 224.6 199.8 221.6C199.8 218.6 201.72 216.68 204.12 216.68C207.24 216.68 207.96 219.44 207.96 219.44H211.8C211.8 219.44 210.6 212.96 204.12 212.96C199.56 212.96 195.96 216.56 195.96 221.6C195.96 226.64 199.56 230.24 204.12 230.24ZM214.691 230H218.291V221.12H222.371V230H225.971V217.76H214.691V230ZM233.527 230.24C235.807 230.24 236.887 228.92 236.887 228.92H237.007L237.247 230H240.367V222.176C240.367 219.44 238.447 217.52 234.847 217.52C231.487 217.52 229.687 219.32 229.447 221.48H232.927C232.927 221.48 233.287 220.4 234.847 220.4C236.047 220.4 236.767 221.12 236.767 222.2V222.44H234.007C230.647 222.44 228.967 224.12 228.967 226.4C228.967 228.56 230.647 230.24 233.527 230.24ZM234.247 227.48C233.167 227.48 232.567 226.88 232.567 226.16C232.567 225.44 233.167 224.84 234.487 224.84H236.767V225.08C236.767 226.52 235.807 227.48 234.247 227.48ZM249.618 230.24C255.018 230.24 255.738 225.2 255.738 225.2H252.018C252.018 225.2 251.538 226.88 249.618 226.88C248.058 226.88 246.858 225.68 246.858 223.88C246.858 222.08 248.058 220.88 249.618 220.88C251.538 220.88 252.018 222.56 252.018 222.56H255.738C255.738 222.56 255.018 217.52 249.618 217.52C245.898 217.52 243.258 220.16 243.258 223.88C243.258 227.6 245.898 230.24 249.618 230.24ZM258.617 230H262.937L266.057 223.64H266.537V230H270.137V217.76H265.817L262.697 224.12H262.217V217.76H258.617V230ZM279.487 230.24C283.087 230.24 285.727 227.6 285.727 224.24C285.727 221 283.447 218.72 280.207 218.72C278.167 218.72 277.207 219.92 277.207 219.92H277.087C277.087 217.52 279.487 217.352 282.487 216.56C284.287 216.08 285.127 215.24 285.127 212.24H281.767C281.767 213.08 281.287 213.56 280.447 213.68C279.007 213.92 277.807 214.184 276.727 214.76C275.167 215.6 273.247 217.52 273.247 222.8V223.28C273.247 227.6 275.887 230.24 279.487 230.24ZM279.487 226.88C278.047 226.88 276.967 225.8 276.967 224.36C276.967 222.92 278.047 221.84 279.487 221.84C280.927 221.84 282.007 222.92 282.007 224.36C282.007 225.8 280.927 226.88 279.487 226.88ZM294.481 230.24C298.201 230.24 300.841 227.6 300.841 223.88C300.841 220.16 298.201 217.52 294.481 217.52C290.761 217.52 288.121 220.16 288.121 223.88C288.121 227.6 290.761 230.24 294.481 230.24ZM294.481 226.88C292.921 226.88 291.721 225.68 291.721 223.88C291.721 222.08 292.921 220.88 294.481 220.88C296.041 220.88 297.241 222.08 297.241 223.88C297.241 225.68 296.041 226.88 294.481 226.88ZM311.5 230H315.34V226.04H311.5V230ZM311.98 224.48H314.86L315.34 219.44V213.2H311.5V219.44L311.98 224.48Z" fill="#333333"/>
<path d="M258 156C280.644 156 299 137.644 299 115C299 92.3563 280.644 74 258 74C235.356 74 217 92.3563 217 115C217 137.644 235.356 156 258 156Z" fill="#0DC332"/>
<path d="M320.5 115C320.5 149.518 292.518 177.5 258 177.5C223.482 177.5 195.5 149.518 195.5 115C195.5 80.4822 223.482 52.5 258 52.5C292.518 52.5 320.5 80.4822 320.5 115Z" stroke="#D1D1D1"/>
<path d="M279 100L253.154 129L237 116.111" stroke="white" stroke-width="6" stroke-miterlimit="10" stroke-linecap="round" stroke-linejoin="round"/>
<path d="M487 22.001L500 35.0006" stroke="#969696" stroke-width="2"/>
<path d="M487 34.9998L500 22" stroke="#969696" stroke-width="2"/>
<path d="M70.3138 280H75.0038C76.6838 280 77.8038 278.88 77.8038 277.27C77.8038 275.73 76.6838 275.1 76.6838 275.1V275.03C76.6838 275.03 77.6638 274.4 77.6638 272.93C77.6638 271.32 76.5438 270.2 74.8638 270.2H70.3138V280ZM72.1338 278.39V275.87H74.7938C75.4238 275.87 75.9838 276.43 75.9838 277.13C75.9838 277.83 75.4238 278.39 74.7938 278.39H72.1338ZM72.1338 274.26V271.81H74.6538C75.3538 271.81 75.8438 272.3 75.8438 273.07C75.8438 273.77 75.3538 274.26 74.6538 274.26H72.1338ZM82.076 280.14C83.476 280.14 84.106 279.3 84.106 279.3H84.176L84.316 280H85.786V275.45C85.786 273.91 84.596 272.72 82.776 272.72C80.886 272.72 79.906 273.84 79.766 275.03H81.516C81.586 274.61 82.006 274.12 82.776 274.12C83.546 274.12 84.036 274.68 84.036 275.45V275.59H82.426C80.466 275.59 79.486 276.57 79.486 277.97C79.486 279.16 80.466 280.14 82.076 280.14ZM82.356 278.74C81.656 278.74 81.236 278.39 81.236 277.83C81.236 277.27 81.656 276.92 82.566 276.92H84.036V277.13C84.036 278.11 83.406 278.74 82.356 278.74ZM87.9533 280H97.4033V272.86H95.6533V278.32H93.5533V272.86H91.8033V278.32H89.7033V272.86H87.9533V280ZM102.929 280.14C105.169 280.14 106.079 278.46 106.219 277.9H104.399C104.259 278.18 103.769 278.67 102.929 278.67C101.949 278.67 101.179 277.97 101.039 276.99H106.359C106.359 276.99 106.429 276.71 106.429 276.29C106.429 274.26 104.889 272.72 102.929 272.72C100.829 272.72 99.2889 274.26 99.2889 276.43C99.2889 278.6 100.829 280.14 102.929 280.14ZM101.039 275.8C101.249 274.89 101.879 274.19 102.929 274.19C103.909 274.19 104.539 274.89 104.679 275.8H101.039ZM115.527 280.14C117.767 280.14 118.677 278.46 118.887 277.34H117.137C116.997 277.83 116.577 278.53 115.527 278.53C114.477 278.53 113.637 277.69 113.637 276.43C113.637 275.17 114.477 274.33 115.527 274.33C116.577 274.33 116.997 275.03 117.137 275.45H118.887C118.677 274.4 117.767 272.72 115.527 272.72C113.427 272.72 111.887 274.26 111.887 276.43C111.887 278.6 113.427 280.14 115.527 280.14ZM123.999 280.14C126.099 280.14 127.639 278.6 127.639 276.43C127.639 274.26 126.099 272.72 123.999 272.72C121.899 272.72 120.359 274.26 120.359 276.43C120.359 278.6 121.899 280.14 123.999 280.14ZM123.999 278.53C122.949 278.53 122.109 277.69 122.109 276.43C122.109 275.17 122.949 274.33 123.999 274.33C125.049 274.33 125.889 275.17 125.889 276.43C125.889 277.69 125.049 278.53 123.999 278.53ZM132.814 280.14C134.914 280.14 136.454 278.6 136.454 276.43C136.454 274.26 134.914 272.72 132.814 272.72C130.714 272.72 129.174 274.26 129.174 276.43C129.174 278.6 130.714 280.14 132.814 280.14ZM132.814 278.53C131.764 278.53 130.924 277.69 130.924 276.43C130.924 275.17 131.764 274.33 132.814 274.33C133.864 274.33 134.704 275.17 134.704 276.43C134.704 277.69 133.864 278.53 132.814 278.53ZM141.559 280.14C143.589 280.14 145.059 278.67 145.059 276.71C145.059 274.75 143.729 273.42 141.909 273.42C140.789 273.42 140.159 273.98 139.949 274.26H139.879C140.033 272.58 141.489 272.37 143.169 272.02C144.149 271.81 144.709 271.32 144.709 269.64H143.099C143.099 270.2 142.819 270.48 142.329 270.55C141.839 270.62 140.719 270.83 140.089 271.18C138.969 271.81 138.059 273.07 138.059 275.87V276.22C138.059 278.6 139.529 280.14 141.559 280.14ZM141.559 278.6C140.579 278.6 139.809 277.83 139.809 276.78C139.809 275.73 140.579 274.96 141.559 274.96C142.539 274.96 143.309 275.73 143.309 276.78C143.309 277.83 142.539 278.6 141.559 278.6ZM155.628 281.68H157.378V278.32H156.398V272.86H154.648V278.32H152.548V272.86H150.798V278.32H148.698V272.86H146.948V280H155.628V281.68ZM162.211 280.14C164.451 280.14 165.361 278.46 165.501 277.9H163.681C163.541 278.18 163.051 278.67 162.211 278.67C161.231 278.67 160.461 277.97 160.321 276.99H165.641C165.641 276.99 165.711 276.71 165.711 276.29C165.711 274.26 164.171 272.72 162.211 272.72C160.111 272.72 158.571 274.26 158.571 276.43C158.571 278.6 160.111 280.14 162.211 280.14ZM160.321 275.8C160.531 274.89 161.161 274.19 162.211 274.19C163.191 274.19 163.821 274.89 163.961 275.8H160.321ZM167.599 280H169.349V277.34H172.219V280H173.969V272.86H172.219V275.66H169.349V272.86H167.599V280ZM176.208 280H178.448L180.548 275.66H180.828V280H182.578V272.86H180.338L178.238 277.2H177.958V272.86H176.208V280ZM188.107 280.14C190.347 280.14 191.257 278.46 191.397 277.9H189.577C189.437 278.18 188.947 278.67 188.107 278.67C187.127 278.67 186.357 277.97 186.217 276.99H191.537C191.537 276.99 191.607 276.71 191.607 276.29C191.607 274.26 190.067 272.72 188.107 272.72C186.007 272.72 184.467 274.26 184.467 276.43C184.467 278.6 186.007 280.14 188.107 280.14ZM186.217 275.8C186.427 274.89 187.057 274.19 188.107 274.19C189.087 274.19 189.717 274.89 189.857 275.8H186.217ZM200.705 280.14C202.805 280.14 204.345 278.6 204.345 276.43C204.345 274.26 202.805 272.72 200.705 272.72C198.605 272.72 197.065 274.26 197.065 276.43C197.065 278.6 198.605 280.14 200.705 280.14ZM200.705 278.53C199.655 278.53 198.815 277.69 198.815 276.43C198.815 275.17 199.655 274.33 200.705 274.33C201.755 274.33 202.595 275.17 202.595 276.43C202.595 277.69 201.755 278.53 200.705 278.53ZM207.566 280H209.316V274.47H211.556V272.86H205.326V274.47H207.566V280ZM213.171 280H214.921V274.54H217.791V280H219.541V272.86H213.171V280ZM221.781 282.8H223.531V279.3H223.601C223.601 279.3 224.161 280.14 225.631 280.14C227.451 280.14 228.921 278.67 228.921 276.43C228.921 274.19 227.451 272.72 225.631 272.72C224.231 272.72 223.601 273.63 223.601 273.63H223.531L223.391 272.86H221.781V282.8ZM225.351 278.53C224.301 278.53 223.531 277.76 223.531 276.43C223.531 275.1 224.301 274.33 225.351 274.33C226.401 274.33 227.171 275.1 227.171 276.43C227.171 277.76 226.401 278.53 225.351 278.53ZM233.054 280.14C234.454 280.14 235.084 279.3 235.084 279.3H235.154L235.294 280H236.764V275.45C236.764 273.91 235.574 272.72 233.754 272.72C231.864 272.72 230.884 273.84 230.744 275.03H232.494C232.564 274.61 232.984 274.12 233.754 274.12C234.524 274.12 235.014 274.68 235.014 275.45V275.59H233.404C231.444 275.59 230.464 276.57 230.464 277.97C230.464 279.16 231.444 280.14 233.054 280.14ZM233.334 278.74C232.634 278.74 232.214 278.39 232.214 277.83C232.214 277.27 232.634 276.92 233.544 276.92H235.014V277.13C235.014 278.11 234.384 278.74 233.334 278.74ZM238.931 280H242.991C244.251 280 245.161 279.09 245.161 277.97C245.161 276.794 244.181 276.36 244.181 276.36V276.29C244.181 276.29 245.021 275.94 245.021 274.89C245.021 273.7 244.181 272.86 242.851 272.86H238.931V280ZM240.681 278.67V277.06H242.571C243.061 277.06 243.411 277.41 243.411 277.83C243.411 278.32 243.061 278.67 242.571 278.67H240.681ZM240.681 275.73V274.19H242.501C242.991 274.19 243.271 274.47 243.271 274.96C243.271 275.45 242.991 275.73 242.501 275.73H240.681ZM246.003 280.07H246.633C248.103 280.07 248.873 279.23 249.013 277.62L249.293 274.47H251.253V280H253.003V272.86H247.683L247.291 277.34C247.221 278.11 246.913 278.46 246.353 278.46H246.003V280.07ZM258.538 280.14C260.778 280.14 261.688 278.46 261.828 277.9H260.008C259.868 278.18 259.378 278.67 258.538 278.67C257.558 278.67 256.788 277.97 256.648 276.99H261.968C261.968 276.99 262.038 276.71 262.038 276.29C262.038 274.26 260.498 272.72 258.538 272.72C256.438 272.72 254.898 274.26 254.898 276.43C254.898 278.6 256.438 280.14 258.538 280.14ZM256.648 275.8C256.858 274.89 257.488 274.19 258.538 274.19C259.518 274.19 260.148 274.89 260.288 275.8H256.648ZM263.926 280H265.676V277.34H268.546V280H270.296V272.86H268.546V275.66H265.676V272.86H263.926V280ZM275.825 280.14C277.925 280.14 279.465 278.6 279.465 276.43C279.465 274.26 277.925 272.72 275.825 272.72C273.725 272.72 272.185 274.26 272.185 276.43C272.185 278.6 273.725 280.14 275.825 280.14ZM275.825 278.53C274.775 278.53 273.935 277.69 273.935 276.43C273.935 275.17 274.775 274.33 275.825 274.33C276.875 274.33 277.715 275.17 277.715 276.43C277.715 277.69 276.875 278.53 275.825 278.53ZM285.27 280H287.02V275.45H287.3L288.77 280H290.45L291.92 275.45H292.2V280H293.95V272.86H291.29L289.75 277.48H289.47L287.93 272.86H285.27V280ZM296.19 280H299.62C301.16 280 302.14 279.02 302.14 277.55C302.14 276.08 301.16 275.1 299.62 275.1H297.94V272.86H296.19V280ZM297.94 278.6V276.5H299.34C299.97 276.5 300.39 276.92 300.39 277.55C300.39 278.18 299.97 278.6 299.34 278.6H297.94ZM302.91 280H304.66V272.86H302.91V280ZM314.115 280.14C316.355 280.14 317.265 278.46 317.475 277.34H315.725C315.585 277.83 315.165 278.53 314.115 278.53C313.065 278.53 312.225 277.69 312.225 276.43C312.225 275.17 313.065 274.33 314.115 274.33C315.165 274.33 315.585 275.03 315.725 275.45H317.475C317.265 274.4 316.355 272.72 314.115 272.72C312.015 272.72 310.475 274.26 310.475 276.43C310.475 278.6 312.015 280.14 314.115 280.14ZM319.297 280H323.357C324.617 280 325.527 279.09 325.527 277.97C325.527 276.794 324.547 276.36 324.547 276.36V276.29C324.547 276.29 325.387 275.94 325.387 274.89C325.387 273.7 324.547 272.86 323.217 272.86H319.297V280ZM321.047 278.67V277.06H322.937C323.427 277.06 323.777 277.41 323.777 277.83C323.777 278.32 323.427 278.67 322.937 278.67H321.047ZM321.047 275.73V274.19H322.867C323.357 274.19 323.637 274.47 323.637 274.96C323.637 275.45 323.357 275.73 322.867 275.73H321.047ZM326.786 280H328.746L330.986 277.55H331.406V280H333.156V272.86H329.446C327.976 272.86 326.926 273.91 326.926 275.24C326.926 276.5 327.976 277.55 329.026 277.55L326.786 280ZM329.726 276.22C329.096 276.22 328.676 275.8 328.676 275.24C328.676 274.68 329.096 274.26 329.726 274.26H331.406V276.22H329.726ZM334.415 280H336.445L338.545 276.64V280H340.295V276.64L342.395 280H344.425L342.115 276.36L344.285 272.86H342.255L340.295 276.08V272.86H338.545V276.08L336.585 272.86H334.555L336.725 276.36L334.415 280ZM348.839 280.14C351.079 280.14 351.989 278.46 352.129 277.9H350.309C350.169 278.18 349.679 278.67 348.839 278.67C347.859 278.67 347.089 277.97 346.949 276.99H352.269C352.269 276.99 352.339 276.71 352.339 276.29C352.339 274.26 350.799 272.72 348.839 272.72C346.739 272.72 345.199 274.26 345.199 276.43C345.199 278.6 346.739 280.14 348.839 280.14ZM346.949 275.8C347.159 274.89 347.789 274.19 348.839 274.19C349.819 274.19 350.449 274.89 350.589 275.8H346.949ZM354.227 280H355.977V275.45H356.257L357.727 280H359.407L360.877 275.45H361.157V280H362.907V272.86H360.247L358.707 277.48H358.427L356.887 272.86H354.227V280ZM368.437 280.14C370.677 280.14 371.587 278.46 371.797 277.34H370.047C369.907 277.83 369.487 278.53 368.437 278.53C367.387 278.53 366.547 277.69 366.547 276.43C366.547 275.17 367.387 274.33 368.437 274.33C369.487 274.33 369.907 275.03 370.047 275.45H371.797C371.587 274.4 370.677 272.72 368.437 272.72C366.337 272.72 364.797 274.26 364.797 276.43C364.797 278.6 366.337 280.14 368.437 280.14ZM373.06 280H375.02L377.26 277.55H377.68V280H379.43V272.86H375.72C374.25 272.86 373.2 273.91 373.2 275.24C373.2 276.5 374.25 277.55 375.3 277.55L373.06 280ZM376 276.22C375.37 276.22 374.95 275.8 374.95 275.24C374.95 274.68 375.37 274.26 376 274.26H377.68V276.22H376ZM388.879 280.14C391.119 280.14 392.029 278.46 392.239 277.34H390.489C390.349 277.83 389.929 278.53 388.879 278.53C387.829 278.53 386.989 277.69 386.989 276.43C386.989 275.17 387.829 274.33 388.879 274.33C389.929 274.33 390.349 275.03 390.489 275.45H392.239C392.029 274.4 391.119 272.72 388.879 272.72C386.779 272.72 385.239 274.26 385.239 276.43C385.239 278.6 386.779 280.14 388.879 280.14ZM397.982 280H402.042C403.302 280 404.212 279.09 404.212 277.97C404.212 276.794 403.232 276.36 403.232 276.36V276.29C403.232 276.29 404.072 275.94 404.072 274.89C404.072 273.7 403.232 272.86 401.902 272.86H397.982V280ZM399.732 278.67V277.06H401.622C402.112 277.06 402.462 277.41 402.462 277.83C402.462 278.32 402.112 278.67 401.622 278.67H399.732ZM399.732 275.73V274.19H401.552C402.042 274.19 402.322 274.47 402.322 274.96C402.322 275.45 402.042 275.73 401.552 275.73H399.732ZM408.271 280.14C409.671 280.14 410.301 279.3 410.301 279.3H410.371L410.511 280H411.981V275.45C411.981 273.91 410.791 272.72 408.971 272.72C407.081 272.72 406.101 273.84 405.961 275.03H407.711C407.781 274.61 408.201 274.12 408.971 274.12C409.741 274.12 410.231 274.68 410.231 275.45V275.59H408.621C406.661 275.59 405.681 276.57 405.681 277.97C405.681 279.16 406.661 280.14 408.271 280.14ZM408.551 278.74C407.851 278.74 407.431 278.39 407.431 277.83C407.431 277.27 407.851 276.92 408.761 276.92H410.231V277.13C410.231 278.11 409.601 278.74 408.551 278.74ZM414.148 280H415.898V275.45H416.178L417.648 280H419.328L420.798 275.45H421.078V280H422.828V272.86H420.168L418.628 277.48H418.348L416.808 272.86H414.148V280ZM425.068 280H427.308L429.408 275.66H429.688V280H431.438V272.86H429.198L427.098 277.2H426.818V272.86H425.068V280ZM437.597 280H441.657C442.917 280 443.827 279.09 443.827 277.97C443.827 276.794 442.847 276.36 442.847 276.36V276.29C442.847 276.29 443.687 275.94 443.687 274.89C443.687 273.7 442.847 272.86 441.517 272.86H437.597V280ZM439.347 278.67V277.06H441.237C441.727 277.06 442.077 277.41 442.077 277.83C442.077 278.32 441.727 278.67 441.237 278.67H439.347ZM439.347 275.73V274.19H441.167C441.657 274.19 441.937 274.47 441.937 274.96C441.937 275.45 441.657 275.73 441.167 275.73H439.347ZM196.311 306.14C198.341 306.14 199.811 304.67 199.811 302.71C199.811 300.75 198.481 299.42 196.661 299.42C195.541 299.42 194.911 299.98 194.701 300.26H194.631C194.785 298.58 196.241 298.37 197.921 298.02C198.901 297.81 199.461 297.32 199.461 295.64H197.851C197.851 296.2 197.571 296.48 197.081 296.55C196.591 296.62 195.471 296.83 194.841 297.18C193.721 297.81 192.811 299.07 192.811 301.87V302.22C192.811 304.6 194.281 306.14 196.311 306.14ZM196.311 304.6C195.331 304.6 194.561 303.83 194.561 302.78C194.561 301.73 195.331 300.96 196.311 300.96C197.291 300.96 198.061 301.73 198.061 302.78C198.061 303.83 197.291 304.6 196.311 304.6ZM200.724 306.07H201.354C202.824 306.07 203.594 305.23 203.734 303.62L204.014 300.47H205.974V306H207.724V298.86H202.404L202.012 303.34C201.942 304.11 201.634 304.46 201.074 304.46H200.724V306.07ZM209.968 306H212.208L214.308 301.66H214.588V306H216.338V298.86H214.098L211.998 303.2H211.718V298.86H209.968V306ZM217.598 306H219.628L221.728 302.64V306H223.478V302.64L225.578 306H227.608L225.298 302.36L227.468 298.86H225.438L223.478 302.08V298.86H221.728V302.08L219.768 298.86H217.738L219.908 302.36L217.598 306ZM230.972 306.14C232.372 306.14 233.002 305.3 233.002 305.3H233.072L233.212 306H234.682V301.45C234.682 299.91 233.492 298.72 231.672 298.72C229.782 298.72 228.802 299.84 228.662 301.03H230.412C230.482 300.61 230.902 300.12 231.672 300.12C232.442 300.12 232.932 300.68 232.932 301.45V301.59H231.322C229.362 301.59 228.382 302.57 228.382 303.97C228.382 305.16 229.362 306.14 230.972 306.14ZM231.252 304.74C230.552 304.74 230.132 304.39 230.132 303.83C230.132 303.27 230.552 302.92 231.462 302.92H232.932V303.13C232.932 304.11 232.302 304.74 231.252 304.74ZM236.849 306H239.089L241.189 301.66H241.469V306H243.219V298.86H240.979L238.879 303.2H238.599V298.86H236.849V306ZM240.069 297.88C241.399 297.88 242.239 297.11 242.309 295.85H240.979C240.839 296.41 240.559 296.69 240.069 296.69C239.579 296.69 239.299 296.41 239.159 295.85H237.829C237.899 297.11 238.739 297.88 240.069 297.88ZM245.459 306H254.909V298.86H253.159V304.32H251.059V298.86H249.309V304.32H247.209V298.86H245.459V306ZM260.434 306.14C262.674 306.14 263.584 304.46 263.724 303.9H261.904C261.764 304.18 261.274 304.67 260.434 304.67C259.454 304.67 258.684 303.97 258.544 302.99H263.864C263.864 302.99 263.934 302.71 263.934 302.29C263.934 300.26 262.394 298.72 260.434 298.72C258.334 298.72 256.794 300.26 256.794 302.43C256.794 304.6 258.334 306.14 260.434 306.14ZM258.544 301.8C258.754 300.89 259.384 300.19 260.434 300.19C261.414 300.19 262.044 300.89 262.184 301.8H258.544ZM269.112 306.14C271.352 306.14 272.262 304.46 272.402 303.9H270.582C270.442 304.18 269.952 304.67 269.112 304.67C268.132 304.67 267.362 303.97 267.222 302.99H272.542C272.542 302.99 272.612 302.71 272.612 302.29C272.612 300.26 271.072 298.72 269.112 298.72C267.012 298.72 265.472 300.26 265.472 302.43C265.472 304.6 267.012 306.14 269.112 306.14ZM267.222 301.8C267.432 300.89 268.062 300.19 269.112 300.19C270.092 300.19 270.722 300.89 270.862 301.8H267.222ZM278.42 306H282.48C283.74 306 284.65 305.09 284.65 303.97C284.65 302.794 283.67 302.36 283.67 302.36V302.29C283.67 302.29 284.51 301.94 284.51 300.89C284.51 299.7 283.67 298.86 282.34 298.86H278.42V306ZM280.17 304.67V303.06H282.06C282.55 303.06 282.9 303.41 282.9 303.83C282.9 304.32 282.55 304.67 282.06 304.67H280.17ZM280.17 301.73V300.19H281.99C282.48 300.19 282.76 300.47 282.76 300.96C282.76 301.45 282.48 301.73 281.99 301.73H280.17ZM286.469 308.8H288.219V305.3H288.289C288.289 305.3 288.849 306.14 290.319 306.14C292.139 306.14 293.609 304.67 293.609 302.43C293.609 300.19 292.139 298.72 290.319 298.72C288.919 298.72 288.289 299.63 288.289 299.63H288.219L288.079 298.86H286.469V308.8ZM290.039 304.53C288.989 304.53 288.219 303.76 288.219 302.43C288.219 301.1 288.989 300.33 290.039 300.33C291.089 300.33 291.859 301.1 291.859 302.43C291.859 303.76 291.089 304.53 290.039 304.53ZM298.792 306.14C301.032 306.14 301.942 304.46 302.082 303.9H300.262C300.122 304.18 299.632 304.67 298.792 304.67C297.812 304.67 297.042 303.97 296.902 302.99H302.222C302.222 302.99 302.292 302.71 302.292 302.29C302.292 300.26 300.752 298.72 298.792 298.72C296.692 298.72 295.152 300.26 295.152 302.43C295.152 304.6 296.692 306.14 298.792 306.14ZM296.902 301.8C297.112 300.89 297.742 300.19 298.792 300.19C299.772 300.19 300.402 300.89 300.542 301.8H296.902ZM304.18 306H305.93V301.45H306.21L307.68 306H309.36L310.83 301.45H311.11V306H312.86V298.86H310.2L308.66 303.48H308.38L306.84 298.86H304.18V306ZM314.54 306H316.5L318.74 303.55H319.16V306H320.91V298.86H317.2C315.73 298.86 314.68 299.91 314.68 301.24C314.68 302.5 315.73 303.55 316.78 303.55L314.54 306ZM317.48 302.22C316.85 302.22 316.43 301.8 316.43 301.24C316.43 300.68 316.85 300.26 317.48 300.26H319.16V302.22H317.48Z" fill="#4F4F4F"/>
<rect x="62" y="356" width="391" height="42" fill="#333333"/>
<path d="M190.96 381H194.68C195.94 381 196.96 379.98 196.96 378.66C196.96 377.28 195.94 376.8 195.94 376.8V376.74C195.94 376.74 196.84 376.2 196.84 374.94C196.84 373.62 195.82 372.6 194.56 372.6H190.96V381ZM191.92 380.1V377.22H194.68C195.4 377.22 196 377.82 196 378.66C196 379.5 195.4 380.1 194.68 380.1H191.92ZM191.92 376.38V373.5H194.56C195.28 373.5 195.88 374.1 195.88 374.94C195.88 375.78 195.28 376.38 194.56 376.38H191.92ZM201.036 381H206.436V380.1H201.996V377.22H206.196V376.32H201.996V373.5H206.436V372.6H201.036V381ZM210.455 381H211.415V377.76H214.115C215.435 377.76 216.515 376.68 216.515 375.18C216.515 373.68 215.435 372.6 214.115 372.6H210.455V381ZM211.415 376.86V373.5H214.115C214.895 373.5 215.555 374.16 215.555 375.18C215.555 376.2 214.895 376.86 214.115 376.86H211.415ZM220.473 381H221.433V377.22H226.113V381H227.073V372.6H226.113V376.32H221.433V372.6H220.473V381ZM231.632 381H232.832C233.612 381 233.996 380.64 234.212 380.16L237.632 372.6H236.612L234.272 377.82H234.032L231.572 372.6H230.552L233.672 379.14L233.432 379.68C233.3 379.992 233.132 380.1 232.772 380.1H231.632V381ZM243.216 381H244.176V373.5H246.936V372.6H240.456V373.5H243.216V381ZM254.02 381.12C255.82 381.12 257.26 380.04 257.74 378.24H256.72C256.3 379.5 255.28 380.22 254.02 380.22C252.34 380.22 250.96 378.84 250.96 376.8C250.96 374.76 252.34 373.38 254.02 373.38C255.28 373.38 256.3 374.1 256.72 375.3H257.74C257.26 373.56 255.82 372.48 254.02 372.48C251.8 372.48 250 374.22 250 376.8C250 379.38 251.8 381.12 254.02 381.12ZM261.046 381H262.246L265.486 377.76H266.326V381H267.286V372.6H263.626C262.306 372.6 261.226 373.68 261.226 375.18C261.226 376.68 262.306 377.76 263.626 377.76H264.286L261.046 381ZM263.626 376.86C262.846 376.86 262.186 376.2 262.186 375.18C262.186 374.16 262.846 373.5 263.626 373.5H266.326V376.86H263.626ZM276.767 381H277.727V377.22H282.407V381H283.367V372.6H282.407V376.32H277.727V372.6H276.767V381ZM286.727 381H287.747L288.527 378.84H292.727L293.507 381H294.527L291.347 372.6H289.907L286.727 381ZM288.887 377.94L290.507 373.62H290.747L292.367 377.94H288.887ZM300.411 381.12C302.331 381.12 303.471 380.04 303.471 378.72C303.471 377.22 301.971 376.8 301.971 376.8V376.74C301.971 376.74 303.291 376.32 303.291 374.88C303.291 373.62 302.211 372.48 300.411 372.48C298.611 372.48 297.531 373.56 297.531 374.88H298.491C298.491 374.1 299.211 373.38 300.411 373.38C301.611 373.38 302.331 374.04 302.331 374.88C302.331 375.66 301.671 376.32 300.711 376.32H299.871V377.22H300.711C301.791 377.22 302.511 377.94 302.511 378.72C302.511 379.5 301.731 380.22 300.411 380.22C299.031 380.22 298.311 379.5 298.311 378.72H297.351C297.351 380.04 298.491 381.12 300.411 381.12ZM306.234 381H307.254L308.034 378.84H312.234L313.014 381H314.034L310.854 372.6H309.414L306.234 381ZM308.394 377.94L310.014 373.62H310.254L311.874 377.94H308.394ZM316.438 382.68H317.398V381H323.278V382.68H324.238V380.1H323.338V372.6H318.118L317.578 379.14C317.518 379.8 317.218 380.1 316.618 380.1H316.438V382.68ZM318.178 380.1C318.178 380.1 318.466 379.92 318.538 379.14L319.018 373.5H322.378V380.1H318.178Z" fill="white"/>
</svg>
