<svg width="115" height="145" fill="none" xmlns="http://www.w3.org/2000/svg"><path d="M.055 48.32c0-14.453 5.24-26.074 15.722-34.863C26.26 4.603 40.191.176 57.574.176c16.927 0 30.339 3.939 40.235 11.816 9.961 7.813 14.941 18.164 14.941 31.055 0 3.646-.618 7.357-1.855 11.133-1.237 3.71-2.67 6.9-4.297 9.57-1.563 2.67-3.614 5.469-6.153 8.398-2.474 2.93-4.46 5.111-5.957 6.543a178.579 178.579 0 01-5.469 4.98L55.914 112.97v.781h58.496V145H2.496v-27.539l56.64-50.098c4.818-4.297 8.301-8.235 10.45-11.816 2.213-3.646 3.32-7.39 3.32-11.23 0-3.907-1.497-7.13-4.492-9.669-2.995-2.604-7.096-3.906-12.305-3.906-5.403 0-9.83 1.628-13.28 4.883-3.386 3.255-5.079 7.454-5.079 12.598v.879H.055v-.782z" fill="#F2F2F2"/></svg>